<?xml version="1.0" encoding="utf-8"?>
<!-- Generator: Adobe Illustrator 17.1.0, SVG Export Plug-In . SVG Version: 6.00 Build 0)  -->
<!DOCTYPE svg PUBLIC "-//W3C//DTD SVG 1.1//EN" "http://www.w3.org/Graphics/SVG/1.1/DTD/svg11.dtd">
<svg version="1.1" id="Layer_1" xmlns="http://www.w3.org/2000/svg" xmlns:xlink="http://www.w3.org/1999/xlink" x="0px" y="0px"
	 viewBox="0 0 595.3 841.9" enable-background="new 0 0 595.3 841.9" xml:space="preserve">
<path fill="#FFFFFF" d="M297.3,129.9C136.6,129.9,6.2,260.2,6.2,420.9C6.2,581.8,136.6,712,297.3,712s291.1-130.4,291.1-291.1
	C588.5,260.2,458.1,129.9,297.3,129.9z M413.1,361.5c0.1,2.6,0.1,5.1,0.1,7.7c0,78.9-60.1,170-170,170c-33.7,0-65.1-9.9-91.6-26.8
	c4.6,0.5,9.4,0.8,14.3,0.8c28,0,53.7-9.5,74.2-25.6c-26.1-0.5-48.2-17.7-55.8-41.4c3.7,0.7,7.4,1.1,11.2,1.1
	c5.5,0,10.7-0.7,15.7-2.1c-27.3-5.5-47.9-29.6-47.9-58.6c0-0.2,0-0.5,0-0.7c8.1,4.5,17.3,7.1,27,7.5c-16.1-10.7-26.5-29-26.5-49.8
	c0-11,3-21.2,8.1-30c29.4,36.2,73.5,59.9,123.1,62.4c-1.1-4.4-1.5-8.9-1.5-13.6c0-33,26.8-59.8,59.8-59.8c17.1,0,32.7,7.3,43.6,18.8
	c13.6-2.6,26.4-7.6,38-14.5c-4.5,13.9-13.9,25.7-26.3,33.1c12.1-1.4,23.6-4.6,34.3-9.4C434.9,342.6,424.8,353.2,413.1,361.5z"/>
</svg>
