<?xml version="1.0" encoding="utf-8"?>
<!-- Generator: Adobe Illustrator 17.1.0, SVG Export Plug-In . SVG Version: 6.00 Build 0)  -->
<!DOCTYPE svg PUBLIC "-//W3C//DTD SVG 1.1//EN" "http://www.w3.org/Graphics/SVG/1.1/DTD/svg11.dtd">
<svg version="1.1" id="Layer_1" xmlns="http://www.w3.org/2000/svg" xmlns:xlink="http://www.w3.org/1999/xlink" x="0px" y="0px"
	 viewBox="0 0 760.3 162.1" enable-background="new 0 0 760.3 162.1" xml:space="preserve">
<g>
	<path fill="#FFFFFF" d="M72.7,116.3c-4.1,0-7.8-0.7-11.3-2.2c-3.4-1.4-6.4-3.4-8.8-5.9c-2.4-2.5-4.4-5.5-5.8-8.9
		c-1.4-3.4-2.1-7.1-2.1-11.1c0-4,0.7-7.7,2.1-11.1c1.4-3.4,3.3-6.4,5.8-8.9c2.4-2.5,5.4-4.5,8.8-5.9c3.4-1.4,7.2-2.2,11.3-2.2
		c4.1,0,7.9,0.7,11.3,2.2c3.4,1.4,6.4,3.4,8.8,5.9c2.4,2.5,4.4,5.5,5.8,8.9c1.4,3.4,2.1,7.1,2.1,11.1c0,4-0.7,7.7-2.1,11.1
		c-1.4,3.4-3.3,6.4-5.8,8.9c-2.4,2.5-5.4,4.5-8.8,5.9C80.6,115.6,76.8,116.3,72.7,116.3z M72.7,109.5c3.1,0,5.9-0.6,8.3-1.7
		c2.5-1.1,4.6-2.7,6.4-4.6c1.8-1.9,3.1-4.2,4.1-6.8c1-2.6,1.4-5.4,1.4-8.3c0-2.9-0.5-5.7-1.4-8.3c-1-2.6-2.3-4.9-4.1-6.8
		c-1.8-1.9-3.9-3.4-6.4-4.6c-2.5-1.1-5.2-1.7-8.3-1.7c-3.1,0-5.9,0.6-8.3,1.7c-2.5,1.1-4.6,2.7-6.4,4.6c-1.8,1.9-3.1,4.2-4.1,6.8
		c-1,2.6-1.4,5.4-1.4,8.3c0,2.9,0.5,5.7,1.4,8.3c1,2.6,2.3,4.9,4.1,6.8c1.8,1.9,3.9,3.4,6.4,4.6C66.9,108.9,69.7,109.5,72.7,109.5z"
		/>
	<path fill="#FFFFFF" d="M114.7,61.3v32.9c0,1.7,0.2,3.4,0.7,5.2c0.5,1.8,1.2,3.4,2.3,5c1.1,1.5,2.4,2.8,4.2,3.7
		c1.7,1,3.8,1.4,6.4,1.4c2.5,0,4.6-0.5,6.4-1.4c1.7-1,3.1-2.2,4.2-3.7c1.1-1.5,1.8-3.2,2.3-5c0.5-1.8,0.7-3.5,0.7-5.2V61.3h7.3v34
		c0,3.1-0.5,6-1.6,8.5c-1.1,2.5-2.5,4.8-4.4,6.6c-1.9,1.9-4.1,3.3-6.6,4.3c-2.5,1-5.2,1.5-8.2,1.5s-5.7-0.5-8.2-1.5
		c-2.5-1-4.7-2.4-6.6-4.3c-1.9-1.9-3.3-4.1-4.4-6.6c-1.1-2.5-1.6-5.4-1.6-8.5v-34H114.7z"/>
	<path fill="#FFFFFF" d="M174.3,68.2H157v-6.8h41.8v6.8h-17.3v46.8h-7.3V68.2z"/>
	<path fill="#FFFFFF" d="M209.4,103.7c1.3,2,3,3.4,5,4.3c2,0.9,4.1,1.4,6.3,1.4c1.2,0,2.4-0.2,3.7-0.6c1.3-0.4,2.4-0.9,3.4-1.7
		c1-0.8,1.9-1.7,2.5-2.8c0.7-1.1,1-2.4,1-3.9c0-2.1-0.7-3.6-2-4.7c-1.3-1.1-2.9-2-4.9-2.7c-1.9-0.7-4.1-1.4-6.4-2.1
		c-2.3-0.7-4.4-1.6-6.4-2.8c-1.9-1.2-3.6-2.8-4.9-4.9c-1.3-2-2-4.8-2-8.3c0-1.6,0.3-3.2,1-5c0.7-1.8,1.8-3.4,3.2-4.8
		c1.5-1.5,3.3-2.7,5.6-3.7c2.3-1,5.1-1.5,8.3-1.5c2.9,0,5.7,0.4,8.4,1.2c2.7,0.8,5,2.4,7,4.9l-5.9,5.4c-0.9-1.4-2.2-2.5-3.9-3.4
		c-1.7-0.9-3.6-1.3-5.7-1.3c-2,0-3.7,0.3-5,0.8c-1.3,0.5-2.4,1.2-3.2,2c-0.8,0.8-1.4,1.7-1.7,2.7c-0.3,1-0.5,1.8-0.5,2.6
		c0,2.3,0.7,4,2,5.2c1.3,1.2,2.9,2.2,4.9,3c1.9,0.8,4.1,1.4,6.4,2c2.3,0.6,4.4,1.4,6.4,2.5c1.9,1.1,3.6,2.5,4.9,4.4
		c1.3,1.8,2,4.4,2,7.6c0,2.6-0.5,4.9-1.5,7c-1,2.1-2.3,3.8-4,5.2c-1.7,1.4-3.6,2.5-5.9,3.3c-2.3,0.8-4.7,1.1-7.3,1.1
		c-3.4,0-6.7-0.6-9.8-1.8c-3.1-1.2-5.5-3.1-7.3-5.6L209.4,103.7z"/>
	<path fill="#FFFFFF" d="M249.1,61.3h7.3v53.6h-7.3V61.3z"/>
	<path fill="#FFFFFF" d="M266.3,61.3H285c3.8,0,7.1,0.4,10,1.3c2.9,0.9,5.3,2,7.4,3.4c2.1,1.4,3.8,3.1,5.2,5
		c1.4,1.9,2.5,3.8,3.3,5.8c0.8,2,1.4,3.9,1.7,5.9c0.4,2,0.5,3.8,0.5,5.5c0,3.4-0.6,6.7-1.9,10c-1.3,3.2-3.1,6.1-5.6,8.6
		c-2.5,2.5-5.5,4.5-9.2,6c-3.7,1.5-7.9,2.3-12.7,2.3h-17.5V61.3z M273.6,108.1h9.2c3.1,0,6-0.4,8.7-1.2s5.2-2.1,7.2-3.7
		c2.1-1.7,3.7-3.7,4.9-6.2c1.2-2.5,1.8-5.4,1.8-8.7c0-1.7-0.3-3.7-0.8-6c-0.6-2.3-1.6-4.5-3.1-6.5c-1.5-2.1-3.7-3.8-6.4-5.3
		c-2.7-1.4-6.3-2.2-10.6-2.2h-10.9V108.1z"/>
	<path fill="#FFFFFF" d="M322.6,61.3h34.6v6.8h-27.3v16h25.4v6.8h-25.4v17.2h28.7v6.8h-36V61.3z"/>
	<path fill="#FFFFFF" d="M405.8,68.2h-17.3v-6.8h41.8v6.8h-17.3v46.8h-7.3V68.2z"/>
	<path fill="#FFFFFF" d="M439.2,61.3h7.3v22.3h27.8V61.3h7.3v53.6h-7.3V90.4h-27.8v24.5h-7.3V61.3z"/>
	<path fill="#FFFFFF" d="M492,61.3h34.6v6.8h-27.3v16h25.4v6.8h-25.4v17.2H528v6.8h-36V61.3z"/>
	<path fill="#FFFFFF" d="M561.2,61.3h18.6c2.3,0,4.5,0.3,6.5,0.8c2,0.6,3.7,1.4,5.1,2.5c1.4,1.1,2.6,2.5,3.4,4.2
		c0.8,1.7,1.2,3.7,1.2,5.9c0,3.1-0.9,5.6-2.6,7.5c-1.7,1.9-3.9,3.4-6.7,4.3v0.2c1.6,0.1,3.1,0.5,4.5,1.3c1.4,0.7,2.6,1.7,3.7,2.9
		c1,1.2,1.9,2.6,2.5,4.1c0.6,1.6,0.9,3.3,0.9,5.1c0,2.4-0.5,4.6-1.5,6.4c-1,1.8-2.3,3.4-4,4.7c-1.7,1.3-3.7,2.2-6,2.9
		c-2.3,0.7-4.7,1-7.3,1h-18.4V61.3z M568.4,83.6h9.9c1.4,0,2.7-0.1,3.9-0.4c1.2-0.3,2.3-0.7,3.2-1.4c0.9-0.7,1.6-1.5,2.2-2.5
		c0.5-1,0.8-2.2,0.8-3.7c0-2.1-0.7-4-2-5.5c-1.4-1.6-3.5-2.3-6.4-2.3h-11.4V83.6z M568.4,108.6h10.7c1.1,0,2.3-0.1,3.7-0.3
		c1.3-0.2,2.6-0.7,3.7-1.4c1.2-0.7,2.1-1.6,2.9-2.8c0.8-1.2,1.2-2.7,1.2-4.6c0-3.2-1-5.6-3.1-7.2c-2.1-1.6-4.9-2.4-8.4-2.4h-10.7
		V108.6z"/>
	<path fill="#FFFFFF" d="M633.4,116.3c-4.1,0-7.8-0.7-11.3-2.2c-3.4-1.4-6.4-3.4-8.8-5.9c-2.4-2.5-4.4-5.5-5.8-8.9
		c-1.4-3.4-2.1-7.1-2.1-11.1c0-4,0.7-7.7,2.1-11.1c1.4-3.4,3.3-6.4,5.8-8.9c2.4-2.5,5.4-4.5,8.8-5.9c3.4-1.4,7.2-2.2,11.3-2.2
		c4.1,0,7.9,0.7,11.3,2.2c3.4,1.4,6.4,3.4,8.8,5.9c2.4,2.5,4.4,5.5,5.8,8.9c1.4,3.4,2.1,7.1,2.1,11.1c0,4-0.7,7.7-2.1,11.1
		c-1.4,3.4-3.3,6.4-5.8,8.9c-2.4,2.5-5.4,4.5-8.8,5.9C641.3,115.6,637.5,116.3,633.4,116.3z M633.4,109.5c3.1,0,5.9-0.6,8.3-1.7
		c2.5-1.1,4.6-2.7,6.4-4.6c1.8-1.9,3.1-4.2,4.1-6.8c1-2.6,1.4-5.4,1.4-8.3c0-2.9-0.5-5.7-1.4-8.3c-1-2.6-2.3-4.9-4.1-6.8
		c-1.8-1.9-3.9-3.4-6.4-4.6c-2.5-1.1-5.2-1.7-8.3-1.7c-3.1,0-5.9,0.6-8.3,1.7c-2.5,1.1-4.6,2.7-6.4,4.6c-1.8,1.9-3.1,4.2-4.1,6.8
		c-1,2.6-1.4,5.4-1.4,8.3c0,2.9,0.5,5.7,1.4,8.3c1,2.6,2.3,4.9,4.1,6.8c1.8,1.9,3.9,3.4,6.4,4.6
		C627.6,108.9,630.4,109.5,633.4,109.5z"/>
	<path fill="#FFFFFF" d="M684.2,86.8l-18-25.4h9.3l13.9,20.6l13.8-20.6h9.1l-17.9,25.4l19.7,28.2h-9.5l-15.4-23.2l-15.4,23.2h-9
		L684.2,86.8z"/>
	<path fill="#FFFFFF" d="M49.4,14.7c0.8-0.7,1.7-1.3,2.8-1.7c1.1-0.4,2.1-0.6,3.2-0.6c1.1,0,2,0.1,2.8,0.4c0.8,0.3,1.4,0.6,1.9,1.1
		c0.5,0.5,0.9,1,1.1,1.6c0.2,0.6,0.4,1.2,0.4,1.9v7.6c0,0.5,0,1,0,1.4c0,0.4,0,0.9,0.1,1.3h-2.5c-0.1-0.8-0.1-1.5-0.1-2.3H59
		c-0.6,1-1.4,1.6-2.2,2c-0.9,0.4-1.9,0.6-3,0.6c-0.7,0-1.4-0.1-2-0.3c-0.6-0.2-1.2-0.5-1.7-0.8c-0.5-0.4-0.8-0.8-1.1-1.4
		c-0.3-0.6-0.4-1.2-0.4-1.9c0-1,0.2-1.8,0.6-2.4c0.4-0.6,1-1.2,1.8-1.6c0.8-0.4,1.6-0.7,2.6-0.9c1-0.2,2.1-0.3,3.2-0.3h2.1v-0.6
		c0-0.4-0.1-0.8-0.2-1.1c-0.1-0.4-0.4-0.7-0.7-1c-0.3-0.3-0.7-0.5-1.1-0.7c-0.4-0.2-1-0.3-1.6-0.3c-0.5,0-1,0.1-1.4,0.2
		c-0.4,0.1-0.8,0.2-1.1,0.4c-0.3,0.2-0.6,0.3-0.9,0.6c-0.3,0.2-0.5,0.4-0.8,0.6L49.4,14.7z M57.4,20.6c-0.7,0-1.4,0-2.1,0.1
		c-0.7,0.1-1.3,0.2-1.9,0.4c-0.6,0.2-1.1,0.5-1.4,0.9c-0.4,0.4-0.5,0.9-0.5,1.5c0,0.9,0.3,1.5,0.9,1.9c0.6,0.4,1.4,0.6,2.4,0.6
		c0.8,0,1.4-0.1,2-0.4c0.5-0.3,1-0.6,1.3-1c0.3-0.4,0.6-0.9,0.7-1.4c0.1-0.5,0.2-1,0.2-1.5v-1H57.4z"/>
	<path fill="#FFFFFF" d="M85.2,16.8c-0.5-0.5-1.1-1-1.7-1.2c-0.6-0.3-1.3-0.4-2.1-0.4c-0.8,0-1.5,0.1-2,0.4
		c-0.6,0.3-1.1,0.7-1.5,1.2c-0.4,0.5-0.7,1.1-0.9,1.7c-0.2,0.6-0.3,1.3-0.3,2c0,0.7,0.1,1.4,0.3,2c0.2,0.6,0.6,1.2,1,1.6
		c0.4,0.5,0.9,0.8,1.5,1.1c0.6,0.3,1.3,0.4,2,0.4c0.8,0,1.5-0.1,2.1-0.4c0.6-0.3,1.1-0.7,1.6-1.2l2,2c-0.7,0.8-1.6,1.4-2.6,1.8
		c-1,0.4-2,0.5-3.1,0.5c-1.2,0-2.2-0.2-3.2-0.6c-1-0.4-1.8-0.9-2.5-1.6c-0.7-0.7-1.2-1.5-1.6-2.5s-0.6-2-0.6-3.2
		c0-1.2,0.2-2.2,0.6-3.2c0.4-1,0.9-1.8,1.6-2.5c0.7-0.7,1.5-1.2,2.5-1.6c1-0.4,2-0.6,3.2-0.6c1.1,0,2.1,0.2,3.1,0.6
		c1,0.4,1.9,1,2.6,1.8L85.2,16.8z"/>
	<path fill="#FFFFFF" d="M90.2,12.8h2.8v2.3h0.1c0.2-0.4,0.4-0.8,0.8-1.1c0.3-0.3,0.7-0.6,1.1-0.8c0.4-0.2,0.8-0.4,1.3-0.6
		c0.5-0.1,0.9-0.2,1.4-0.2c0.5,0,0.9,0.1,1.3,0.2l-0.1,3.1c-0.2-0.1-0.5-0.1-0.7-0.2c-0.2,0-0.5-0.1-0.7-0.1c-1.4,0-2.4,0.4-3.2,1.2
		c-0.7,0.8-1.1,2-1.1,3.6v7.5h-2.8V12.8z"/>
	<path fill="#FFFFFF" d="M102.9,21.3c0,0.7,0.1,1.2,0.4,1.8c0.3,0.5,0.7,1,1.1,1.4c0.5,0.4,1,0.7,1.6,0.9c0.6,0.2,1.2,0.3,1.9,0.3
		c0.9,0,1.6-0.2,2.3-0.6c0.6-0.4,1.2-1,1.8-1.6l2.1,1.6c-1.6,2-3.8,3.1-6.6,3.1c-1.2,0-2.2-0.2-3.2-0.6c-1-0.4-1.8-0.9-2.4-1.7
		c-0.7-0.7-1.2-1.5-1.5-2.5c-0.4-1-0.5-2-0.5-3.1c0-1.1,0.2-2.2,0.6-3.1c0.4-1,0.9-1.8,1.6-2.5c0.7-0.7,1.5-1.3,2.4-1.7
		c0.9-0.4,2-0.6,3.1-0.6c1.3,0,2.4,0.2,3.4,0.7c0.9,0.5,1.7,1.1,2.3,1.8c0.6,0.8,1,1.6,1.3,2.5c0.3,0.9,0.4,1.9,0.4,2.9v1H102.9z
		 M111.9,19.1c0-0.6-0.1-1.2-0.3-1.7c-0.2-0.5-0.4-1-0.8-1.4c-0.4-0.4-0.8-0.7-1.3-0.9c-0.5-0.2-1.2-0.3-1.9-0.3
		c-0.7,0-1.3,0.1-1.9,0.4c-0.6,0.3-1.1,0.6-1.5,1c-0.4,0.4-0.7,0.9-0.9,1.4c-0.2,0.5-0.3,1-0.3,1.5H111.9z"/>
	<path fill="#FFFFFF" d="M117.7,14.7c0.8-0.7,1.7-1.3,2.8-1.7c1.1-0.4,2.1-0.6,3.2-0.6c1.1,0,2,0.1,2.8,0.4c0.8,0.3,1.4,0.6,1.9,1.1
		c0.5,0.5,0.9,1,1.1,1.6c0.2,0.6,0.4,1.2,0.4,1.9v7.6c0,0.5,0,1,0,1.5c0,0.4,0.1,0.9,0.1,1.3h-2.5c-0.1-0.8-0.1-1.5-0.1-2.3h-0.1
		c-0.6,1-1.4,1.7-2.2,2.1c-0.9,0.4-1.9,0.6-3,0.6c-0.7,0-1.4-0.1-2-0.3c-0.6-0.2-1.2-0.5-1.7-0.8c-0.5-0.4-0.8-0.8-1.1-1.4
		c-0.3-0.6-0.4-1.2-0.4-1.9c0-1,0.2-1.8,0.6-2.4c0.4-0.7,1-1.2,1.8-1.6c0.7-0.4,1.6-0.7,2.6-0.9c1-0.2,2.1-0.3,3.2-0.3h2.1v-0.6
		c0-0.4-0.1-0.8-0.2-1.1c-0.1-0.4-0.4-0.7-0.7-1c-0.3-0.3-0.7-0.6-1.1-0.7c-0.4-0.2-1-0.3-1.6-0.3c-0.5,0-1,0.1-1.4,0.2
		c-0.4,0.1-0.8,0.2-1.1,0.4c-0.3,0.2-0.6,0.3-0.9,0.6c-0.3,0.2-0.5,0.4-0.8,0.6L117.7,14.7z M125.7,20.7c-0.7,0-1.4,0-2.1,0.1
		c-0.7,0.1-1.3,0.2-1.9,0.4c-0.6,0.2-1.1,0.5-1.4,0.9c-0.4,0.4-0.6,0.9-0.6,1.5c0,0.9,0.3,1.5,0.9,1.9c0.6,0.4,1.4,0.6,2.3,0.6
		c0.8,0,1.4-0.1,2-0.4c0.5-0.3,1-0.6,1.3-1c0.3-0.4,0.6-0.9,0.7-1.4c0.1-0.5,0.2-1,0.2-1.5v-0.9H125.7z"/>
	<path fill="#FFFFFF" d="M141.9,15.3h-4.1v6.8c0,0.4,0,0.8,0,1.2c0,0.4,0.1,0.8,0.2,1.1c0.1,0.3,0.3,0.6,0.6,0.8
		c0.3,0.2,0.7,0.3,1.2,0.3c0.3,0,0.7,0,1-0.1c0.4-0.1,0.7-0.2,1-0.3v2.6c-0.3,0.2-0.8,0.3-1.3,0.4c-0.5,0.1-1,0.1-1.2,0.1
		c-1.1,0-1.9-0.2-2.5-0.5c-0.6-0.3-1-0.7-1.3-1.2c-0.3-0.5-0.5-1-0.5-1.6c-0.1-0.6-0.1-1.2-0.1-1.8v-7.8h-3.3v-2.5h3.3V8.6h2.8v4.2
		h4.1V15.3z"/>
	<path fill="#FFFFFF" d="M145,7.5c0-0.6,0.2-1.1,0.6-1.5c0.4-0.4,0.9-0.6,1.5-0.6c0.6,0,1.1,0.2,1.5,0.6c0.4,0.4,0.6,0.9,0.6,1.5
		c0,0.6-0.2,1.1-0.6,1.5c-0.4,0.4-0.9,0.6-1.5,0.6c-0.6,0-1.1-0.2-1.5-0.6C145.2,8.5,145,8,145,7.5z M145.7,12.8h2.8v14.9h-2.8V12.8
		z"/>
	<path fill="#FFFFFF" d="M151.6,12.9h3.3l4.5,11.4l4.3-11.4h3l-5.9,14.9h-3.1L151.6,12.9z"/>
	<path fill="#FFFFFF" d="M168.5,7.5c0-0.6,0.2-1.1,0.6-1.5c0.4-0.4,0.9-0.6,1.5-0.6c0.6,0,1.1,0.2,1.5,0.6c0.4,0.4,0.6,0.9,0.6,1.5
		c0,0.6-0.2,1.1-0.6,1.5c-0.4,0.4-0.9,0.6-1.5,0.6c-0.6,0-1.1-0.2-1.5-0.6C168.7,8.5,168.5,8,168.5,7.5z M169.1,12.8h2.8v14.9h-2.8
		V12.8z"/>
	<path fill="#FFFFFF" d="M185.3,15.3h-4.1v6.8c0,0.4,0,0.8,0,1.2c0,0.4,0.1,0.8,0.2,1.1c0.1,0.3,0.3,0.6,0.6,0.8
		c0.3,0.2,0.7,0.3,1.2,0.3c0.3,0,0.7,0,1-0.1c0.4-0.1,0.7-0.2,1-0.3v2.6c-0.3,0.2-0.8,0.3-1.3,0.4c-0.5,0.1-1,0.1-1.2,0.1
		c-1.1,0-1.9-0.2-2.5-0.5c-0.6-0.3-1-0.7-1.3-1.2c-0.3-0.5-0.5-1-0.5-1.6c-0.1-0.6-0.1-1.2-0.1-1.8v-7.8h-3.3v-2.5h3.3V8.6h2.8v4.2
		h4.1V15.3z"/>
	<path fill="#FFFFFF" d="M187.7,12.8h3.3l4.4,11.7h0.1l4.2-11.7h3L195.6,31c-0.2,0.7-0.5,1.2-0.8,1.8c-0.3,0.5-0.6,1-1,1.4
		c-0.4,0.4-0.8,0.7-1.4,0.9c-0.5,0.2-1.2,0.3-2,0.3c-0.4,0-0.8,0-1.3-0.1c-0.4,0-0.8-0.2-1.2-0.3l0.3-2.6c0.6,0.2,1.1,0.3,1.7,0.3
		c0.4,0,0.8-0.1,1.1-0.2c0.3-0.1,0.6-0.3,0.8-0.5c0.2-0.2,0.4-0.5,0.6-0.8c0.1-0.3,0.3-0.6,0.4-1l0.9-2.4L187.7,12.8z"/>
	<path fill="#FFFFFF" d="M228.5,27.6c0,1.1-0.2,2.2-0.6,3.1c-0.4,0.9-0.9,1.7-1.7,2.4c-0.7,0.7-1.6,1.2-2.6,1.6
		c-1,0.4-2.1,0.6-3.3,0.6c-1.4,0-2.7-0.2-3.9-0.6c-1.2-0.4-2.3-1.1-3.4-2.1l1.9-2.4c0.7,0.8,1.5,1.4,2.4,1.8
		c0.9,0.4,1.8,0.6,2.9,0.6c1.1,0,1.9-0.2,2.6-0.5c0.7-0.3,1.2-0.7,1.7-1.2c0.4-0.5,0.7-1,0.9-1.7c0.2-0.6,0.3-1.2,0.3-1.9v-2.2h-0.1
		c-0.5,0.9-1.3,1.6-2.2,2c-0.9,0.4-1.9,0.6-2.9,0.6c-1.1,0-2.1-0.2-3-0.6c-0.9-0.4-1.7-0.9-2.4-1.6c-0.7-0.7-1.2-1.5-1.6-2.4
		c-0.4-0.9-0.6-2-0.6-3c0-1.1,0.2-2.1,0.5-3.1c0.4-1,0.9-1.8,1.5-2.5c0.7-0.7,1.5-1.3,2.4-1.7c0.9-0.4,2-0.6,3.1-0.6
		c1,0,2,0.2,2.9,0.7c1,0.4,1.7,1.1,2.3,1.9h0.1v-2.1h2.8V27.6z M220.7,15.1c-0.8,0-1.4,0.1-2.1,0.4c-0.6,0.3-1.1,0.6-1.5,1.1
		c-0.4,0.4-0.7,1-1,1.6c-0.2,0.6-0.3,1.3-0.3,2.1c0,1.5,0.4,2.7,1.3,3.6c0.9,0.9,2.1,1.4,3.6,1.4c1.5,0,2.7-0.5,3.6-1.4
		c0.9-0.9,1.3-2.1,1.3-3.6c0-0.8-0.1-1.5-0.3-2.1c-0.2-0.6-0.6-1.2-1-1.6c-0.4-0.5-0.9-0.8-1.5-1.1
		C222.1,15.2,221.5,15.1,220.7,15.1z"/>
	<path fill="#FFFFFF" d="M232.3,14.7c0.8-0.7,1.7-1.3,2.8-1.7c1.1-0.4,2.1-0.6,3.2-0.6c1.1,0,2,0.1,2.8,0.4c0.8,0.3,1.4,0.6,1.9,1.1
		c0.5,0.5,0.9,1,1.1,1.6c0.2,0.6,0.4,1.2,0.4,1.9v7.6c0,0.5,0,1,0,1.5c0,0.4,0.1,0.9,0.1,1.3h-2.5c-0.1-0.8-0.1-1.5-0.1-2.3h-0.1
		c-0.6,1-1.4,1.7-2.2,2.1c-0.9,0.4-1.9,0.6-3,0.6c-0.7,0-1.4-0.1-2-0.3c-0.6-0.2-1.2-0.5-1.7-0.8c-0.5-0.4-0.8-0.8-1.1-1.4
		c-0.3-0.6-0.4-1.2-0.4-1.9c0-1,0.2-1.8,0.6-2.4c0.4-0.7,1-1.2,1.8-1.6c0.8-0.4,1.6-0.7,2.6-0.9c1-0.2,2.1-0.3,3.2-0.3h2.1v-0.6
		c0-0.4-0.1-0.8-0.2-1.1c-0.1-0.4-0.4-0.7-0.7-1c-0.3-0.3-0.7-0.6-1.1-0.7c-0.4-0.2-1-0.3-1.6-0.3c-0.5,0-1,0.1-1.4,0.2
		c-0.4,0.1-0.8,0.2-1.1,0.4c-0.3,0.2-0.6,0.3-0.9,0.6c-0.3,0.2-0.5,0.4-0.8,0.6L232.3,14.7z M240.3,20.7c-0.7,0-1.4,0-2.1,0.1
		c-0.7,0.1-1.3,0.2-1.9,0.4c-0.6,0.2-1.1,0.5-1.4,0.9c-0.4,0.4-0.6,0.9-0.6,1.5c0,0.9,0.3,1.5,0.9,1.9c0.6,0.4,1.4,0.6,2.4,0.6
		c0.8,0,1.4-0.1,2-0.4c0.5-0.3,1-0.6,1.3-1c0.3-0.4,0.6-0.9,0.7-1.4c0.2-0.5,0.2-1,0.2-1.5v-0.9H240.3z"/>
	<path fill="#FFFFFF" d="M247.8,12.8h2.6v2.3h0.1c0.1-0.2,0.2-0.5,0.5-0.8c0.3-0.3,0.6-0.6,1-0.9c0.4-0.3,0.9-0.5,1.4-0.7
		c0.6-0.2,1.2-0.3,1.8-0.3c1.1,0,2.1,0.2,2.8,0.7c0.8,0.5,1.4,1.2,1.9,2.1c0.5-0.9,1.2-1.6,2.1-2.1c0.9-0.5,1.8-0.7,2.7-0.7
		c1.2,0,2.1,0.2,2.8,0.6c0.7,0.4,1.3,0.9,1.7,1.5c0.4,0.6,0.7,1.3,0.9,2.1c0.2,0.8,0.2,1.6,0.2,2.4v8.7h-2.8v-8.3
		c0-0.6,0-1.1-0.1-1.6c-0.1-0.5-0.2-1-0.5-1.4c-0.2-0.4-0.6-0.7-1-1c-0.4-0.2-1-0.4-1.7-0.4c-1.4,0-2.3,0.4-2.9,1.3
		c-0.6,0.8-0.9,1.9-0.9,3.2v8.2h-2.8V20c0-0.7,0-1.4-0.1-2c-0.1-0.6-0.2-1.1-0.4-1.5c-0.2-0.4-0.5-0.8-0.9-1c-0.4-0.2-1-0.4-1.7-0.4
		c-0.5,0-1,0.1-1.5,0.3c-0.5,0.2-0.9,0.5-1.2,0.9c-0.4,0.4-0.6,0.9-0.9,1.5c-0.2,0.6-0.3,1.4-0.3,2.2v7.8h-2.8V12.8z"/>
	<path fill="#FFFFFF" d="M276.3,21.2c0,0.6,0.1,1.2,0.4,1.8c0.3,0.5,0.7,1,1.1,1.4c0.5,0.4,1,0.7,1.6,0.9c0.6,0.2,1.2,0.3,1.9,0.3
		c0.9,0,1.7-0.2,2.3-0.6c0.7-0.4,1.3-1,1.8-1.6l2.1,1.6c-1.6,2-3.8,3.1-6.6,3.1c-1.2,0-2.2-0.2-3.2-0.6c-1-0.4-1.8-1-2.4-1.7
		c-0.7-0.7-1.2-1.5-1.5-2.5c-0.4-1-0.5-2-0.5-3.1c0-1.1,0.2-2.2,0.6-3.1c0.4-1,0.9-1.8,1.6-2.5c0.7-0.7,1.5-1.3,2.4-1.7
		c0.9-0.4,2-0.6,3.1-0.6c1.3,0,2.4,0.2,3.4,0.7c0.9,0.5,1.7,1.1,2.3,1.8c0.6,0.8,1,1.6,1.3,2.5c0.3,0.9,0.4,1.9,0.4,2.9v1H276.3z
		 M285.2,18.9c0-0.6-0.1-1.2-0.3-1.7c-0.2-0.5-0.4-1-0.8-1.4c-0.4-0.4-0.8-0.7-1.3-0.9c-0.5-0.2-1.2-0.3-1.9-0.3
		c-0.7,0-1.3,0.1-1.9,0.4c-0.6,0.3-1.1,0.6-1.5,1c-0.4,0.4-0.7,0.9-0.9,1.4c-0.2,0.5-0.3,1-0.3,1.5H285.2z"/>
	<polygon fill="#FFFFFF" points="309.4,18.6 309.4,22.8 751.5,22.8 751.5,153.7 7.1,153.7 7.1,22.8 28.7,22.8 28.7,18.6 2.9,18.6 
		2.9,157.9 755.7,157.9 755.7,18.6 	"/>
</g>
</svg>
