<?xml version="1.0" encoding="utf-8"?>
<!-- Generator: Adobe Illustrator 17.1.0, SVG Export Plug-In . SVG Version: 6.00 Build 0)  -->
<!DOCTYPE svg PUBLIC "-//W3C//DTD SVG 1.1//EN" "http://www.w3.org/Graphics/SVG/1.1/DTD/svg11.dtd">
<svg version="1.1" id="Layer_1" xmlns="http://www.w3.org/2000/svg" xmlns:xlink="http://www.w3.org/1999/xlink" x="0px" y="0px"
	 viewBox="0 0 595.3 841.9" enable-background="new 0 0 595.3 841.9" xml:space="preserve">
<path fill="#FFFFFF" d="M297.9,125c-163.5,0-296,132.5-296,296s132.5,296,296,296s296-132.5,296-296
	C593.7,257.5,461.3,125,297.9,125z M361.2,421.1h-41.4c0,66.3,0,147.9,0,147.9h-61.4c0,0,0-80.8,0-147.9h-29.3v-52.3h29.3V335
	c0-24.2,11.5-62,62-62l45.5,0.2v50.7c0,0-27.6,0-33.1,0c-5.4,0-13.1,2.6-13.1,14.3v30.7h46.9L361.2,421.1z"/>
</svg>
