<?xml version="1.0" encoding="utf-8"?>
<!-- Generator: Adobe Illustrator 17.1.0, SVG Export Plug-In . SVG Version: 6.00 Build 0)  -->
<!DOCTYPE svg PUBLIC "-//W3C//DTD SVG 1.1//EN" "http://www.w3.org/Graphics/SVG/1.1/DTD/svg11.dtd">
<svg version="1.1" id="Layer_1" xmlns="http://www.w3.org/2000/svg" xmlns:xlink="http://www.w3.org/1999/xlink" x="0px" y="0px"
	 viewBox="0 0 595.3 841.9" enable-background="new 0 0 595.3 841.9" xml:space="preserve">
<g>
	<path fill="#FFFFFF" d="M238.1,288.9c-23.2-0.7-38.8,22.6-34.8,53.1c4,30.5,26.1,51.8,49.3,52.5c23.2,0.7,36.6-18.9,32.5-49.4
		C281.2,314.6,261.3,289.6,238.1,288.9z"/>
	<path fill="#FFFFFF" d="M247.9,456.8c-34.5-0.4-63.8,21.8-63.8,47.6c0,26.3,25,48.1,59.5,48.1c48.6,0,65.5-20.5,65.5-46.8
		c0-3.2-0.4-6.3-1.1-9.3c-3.8-14.9-18.9-23-37.7-36.1C263.5,458.2,256,456.9,247.9,456.8z"/>
	<path fill="#FFFFFF" d="M297.4,129C136.2,129,5.5,259.7,5.5,420.9c0,161.3,130.7,291.9,291.9,291.9s291.9-130.7,291.9-291.9
		C589.4,259.7,458.7,129,297.4,129z M319.8,343.8c0,19-10.5,34.4-25.4,46c-14.5,11.4-17.3,16.1-17.3,25.7c0,8.2,17.4,20.5,25.4,26.4
		c27.7,20.8,33.5,33.9,33.5,60c0,32.5-35,64.9-92,64.9c-50,0-92.1-20.4-92.1-52.9c0-33,35-67.4,85-67.4c5.5,0,10.5-0.1,15.6-0.1
		C245.6,439.8,240,434,240,424c0-6,1.9-11.7,4.5-16.8c-2.7,0.2-5.5,0.4-8.3,0.4c-41.1,0-65-28.8-65-65c0-35.5,36.4-67.6,80.1-67.6
		c22.5,0,86.1,0,86.1,0l-19.3,20.2h-22.6C311.3,304.3,319.8,323.1,319.8,343.8z M443.4,338.6h-39.6v39.6h-19.9v-39.6h-39.6v-19.9
		h39.6V279h19.8v39.6h39.6L443.4,338.6z"/>
</g>
</svg>
